<?xml version="1.0" encoding="utf-8"?>
<!DOCTYPE svg PUBLIC "-//W3C//DTD SVG 1.1//EN" "http://www.w3.org/Graphics/SVG/1.1/DTD/svg11.dtd">
<svg version="1.1" id="图形" xmlns="http://www.w3.org/2000/svg" xmlns:xlink="http://www.w3.org/1999/xlink" x="0px" y="0px" width="1024px" height="1024px" viewBox="0 0 1024 1024" enable-background="new 0 0 1024 1024" xml:space="preserve">
  <path fill="#eb4f38" d="M509.875 737.855c-247.527 0-448.186-200.659-448.186-448.186s200.659-448.186 448.186-448.186 448.186 200.659 448.186 448.186-200.66 448.186-448.186 448.186zM727.303 127.71c7.417-7.417 11.503-17.279 11.503-27.769 0-10.49-4.086-20.352-11.504-27.769-7.416-7.417-17.279-11.502-27.768-11.502s-20.352 4.085-27.769 11.502l-159.418 159.42-159.42-159.419c-7.418-7.417-17.28-11.502-27.769-11.502s-20.352 4.085-27.769 11.502c-7.417 7.417-11.503 17.279-11.503 27.769 0 10.49 4.085 20.352 11.503 27.769l159.419 159.42-159.419 159.419c-7.417 7.417-11.503 17.28-11.503 27.769s4.085 20.352 11.503 27.769c7.417 7.417 17.279 11.502 27.768 11.502 10.49 0 20.352-4.085 27.769-11.502l159.42-159.42 159.419 159.42c7.417 7.417 17.279 11.502 27.769 11.502s20.352-4.085 27.769-11.502c7.417-7.417 11.503-17.28 11.503-27.769 0-10.49-4.086-20.353-11.503-27.769l-159.419-159.42 159.419-159.42z" transform="translate(0, 812) scale(1, -1)"/>
</svg>
