<?xml version="1.0" encoding="utf-8"?>
<!DOCTYPE svg PUBLIC "-//W3C//DTD SVG 1.1//EN" "http://www.w3.org/Graphics/SVG/1.1/DTD/svg11.dtd">
<svg version="1.1" id="图形" xmlns="http://www.w3.org/2000/svg" xmlns:xlink="http://www.w3.org/1999/xlink" x="0px" y="0px" width="1024px" height="1024px" viewBox="0 0 1024 1024" enable-background="new 0 0 1024 1024" xml:space="preserve">
  <path fill="#11cd6e" d="M512 791.52c-271.4624 0-491.52-220.0576-491.52-491.52s220.0576-491.52 491.52-491.52 491.52 220.0576 491.52 491.52S783.4624 791.52 512 791.52zM825.4464 432.4032l-351.744-351.744 0 0c-23.8592-23.8592-62.976-23.8592-86.9376 0l0 0c0 0 0 0 0 0L198.5536 268.9728c-23.8592 23.8592-23.8592 62.976 0 86.9376l0 0c23.8592 23.8592 62.976 23.8592 86.9376 0l144.7936-144.7936 308.3264 308.3264c23.8592 23.8592 62.976 23.8592 86.9376 0l0 0C849.3056 495.3792 849.3056 456.2624 825.4464 432.4032z" transform="translate(0, 812) scale(1, -1)"/>
</svg>
